<svg width="27" height="27" viewBox="0 0 27 27" fill="none" xmlns="http://www.w3.org/2000/svg">
<path id="Vector" d="M3.15 0C2.44718 0 1.77314 0.279196 1.27617 0.776167C0.779196 1.27314 0.5 1.94718 0.5 2.65V18.55C0.5 19.2528 0.779196 19.9269 1.27617 20.4238C1.77314 20.9208 2.44718 21.2 3.15 21.2H8.45V25.175C8.45 25.5264 8.5896 25.8634 8.83808 26.1119C9.08657 26.3604 9.42359 26.5 9.775 26.5H10.4375C10.7688 26.5 11.1 26.3675 11.365 26.1157L16.2675 21.2H24.35C25.0528 21.2 25.7269 20.9208 26.2238 20.4238C26.7208 19.9269 27 19.2528 27 18.55V2.65C27 1.94718 26.7208 1.27314 26.2238 0.776167C25.7269 0.279196 25.0528 0 24.35 0H3.15ZM3.15 2.65H24.35V18.55H15.181L11.1 22.631V18.55H3.15V2.65ZM14.0017 4.6375C12.8225 4.6375 11.8818 4.876 11.1663 5.353C10.4375 5.83 10.0665 6.625 10.1328 7.53925H12.743C12.743 7.16825 12.8755 6.89 13.0875 6.7045C13.3525 6.519 13.644 6.42625 14.0017 6.42625C14.4125 6.42625 14.7703 6.53225 15.0087 6.77075C15.2473 6.996 15.3665 7.2875 15.3665 7.685C15.3665 8.056 15.2605 8.38725 15.075 8.6655C14.8498 8.957 14.5715 9.1955 14.227 9.381C13.538 9.805 13.0875 10.176 12.8093 10.494C12.5575 10.812 12.425 11.2625 12.425 11.925H15.075C15.075 11.554 15.1413 11.2625 15.2605 11.024C15.3798 10.7987 15.605 10.6 15.9495 10.4013C16.559 10.123 17.0625 9.752 17.4468 9.275C17.831 8.78475 18.0298 8.268 18.0298 7.685C18.0298 6.7575 17.672 6.0155 16.9565 5.459C16.241 4.91575 15.2472 4.6375 14.0017 4.6375ZM12.425 13.25V15.9H15.075V13.25H12.425Z" fill="#1875FF"/>
</svg>
