<svg width="24" height="24" viewBox="0 0 24 24" fill="none" xmlns="http://www.w3.org/2000/svg">
<path id="Vector" d="M22 22.5L17.0539 17.5539M17.0539 17.5539C17.8999 16.7078 18.571 15.7034 19.0289 14.598C19.4868 13.4925 19.7225 12.3077 19.7225 11.1112C19.7225 9.91474 19.4868 8.72995 19.0289 7.62452C18.571 6.51909 17.8999 5.51468 17.0539 4.66862C16.2078 3.82256 15.2034 3.15143 14.098 2.69355C12.9925 2.23567 11.8077 2 10.6112 2C9.41474 2 8.22995 2.23567 7.12452 2.69355C6.01909 3.15143 5.01468 3.82256 4.16862 4.66862C2.45993 6.37731 1.5 8.69479 1.5 11.1112C1.5 13.5277 2.45993 15.8452 4.16862 17.5539C5.87731 19.2626 8.19479 20.2225 10.6112 20.2225C13.0277 20.2225 15.3452 19.2626 17.0539 17.5539Z" stroke="#1875FF" stroke-width="3" stroke-linecap="round" stroke-linejoin="round"/>
</svg>
